<svg id="clone" xmlns="http://www.w3.org/2000/svg" width="50" height="46" viewBox="0 0 50 46">
  <defs>
    <style>
      .cls-1 {
        fill: #7c7c7c;
        fill-rule: evenodd;
      }
    </style>
  </defs>
  <path class="cls-1" d="M11.818,2.924V4.539H19.87V2.924H11.818Z" transform="translate(-0.5 -2.5)"/>
  <path id="Shape_2_copy" data-name="Shape 2 copy" class="cls-1" d="M31.174,9.362v1.615h8.052V9.362H31.174Z" transform="translate(-0.5 -2.5)"/>
  <path id="Rectangle_1_copy_2" data-name="Rectangle 1 copy 2" class="cls-1" d="M4.517,5.336V39.514s0.526,2.233,2.5,2.124H22.275v-12.9H18.846S14.792,28.636,15,23.786V18.233h1.659V24.6A2.438,2.438,0,0,0,19.1,27.126h3.185V11.486a4.2,4.2,0,0,1,4.845-3.739V5.092a2.494,2.494,0,0,0-2.279-2.168H21.485V4.716a1.643,1.643,0,0,1-1.637,1.46h-8.1A1.706,1.706,0,0,1,10.181,4.65V2.924H6.8A2.524,2.524,0,0,0,4.517,5.336ZM11.8,15.025h1.659V16.64H11.8V15.025h0Zm3.23,0h1.659V16.64H15.025V15.025h0Zm3.23,0h1.659V16.64H18.255V15.025h0Z" transform="translate(-0.5 -2.5)"/>
  <path class="cls-1" d="M23.94,28.741V45.8a2.34,2.34,0,0,0,2.588,2.279H44.315a2.384,2.384,0,0,0,2.168-2.389V11.442a2.453,2.453,0,0,0-2.256-2.035H40.864v1.7a1.673,1.673,0,0,1-1.814,1.5H31.042a1.678,1.678,0,0,1-1.482-1.526v-1.7H26.042a2.455,2.455,0,0,0-2.124,2.279V27.1h9.336L30.6,24.449l1.15-1.128L35.731,27.3a0.83,0.83,0,0,1,.022,1.217l-4.026,4.026-1.15-1.15,2.655-2.677Z" transform="translate(-0.5 -2.5)"/>
</svg>
