<svg xmlns="http://www.w3.org/2000/svg" width="50" height="46" viewBox="0 0 50 46">
  <defs>
    <style>
      .cls-1 {
        fill: #7c7c7c;
        fill-rule: evenodd;
      }
    </style>
  </defs>
  <path id="configuration" class="cls-1" d="M34.19,4v8.615s3.459,4.406,7.26,0V4a9.8,9.8,0,0,1,5.186,3.231,10.745,10.745,0,0,1,1.037,11.846,9.877,9.877,0,0,1-5.186,4.308V46H33.153V23.385c-2.554-.5-4.857-2.6-6.223-4.308-1.171-4.253-.845-7.985,0-9.692A10.7,10.7,0,0,1,33.153,4H34.19ZM24.855,4H18.632V8.308s-2.994-.636-6.223,3.231L9.3,8.308,5.149,12.615,8.26,15.846s-2.069,1.908-2.074,6.462H1v5.385H5.149A5.845,5.845,0,0,0,8.26,33.077L5.149,37.385,9.3,41.692l3.111-3.231a8.411,8.411,0,0,0,6.223,3.231V46h6.223V41.692s3.713-.477,5.186-2.154V29.846c-4.52,5.347-11.981,5.214-15.558,1.077a10.454,10.454,0,0,1,0-12.923,9.8,9.8,0,0,1,10.372-3.231V4Z" transform="translate(0 -2)"/>
</svg>
