<svg xmlns="http://www.w3.org/2000/svg" width="50" height="46" viewBox="0 0 50 46">
  <defs>
    <style>
      .cls-1 {
        fill: #7c7c7c;
        fill-rule: evenodd;
      }
    </style>
  </defs>
  <path id="reload" class="cls-1" d="M39,28c-0.74,5.695-4.247,10.29-9,12-3.87,1.393-7.977.469-11-1a15,15,0,0,1-8-9,15,15,0,0,1,2-12c1.62-2.574,4.93-6.2,10-7a14.873,14.873,0,0,1,14,6l-5,5H46V7l-4,5A19.5,19.5,0,0,0,30,4,20.08,20.08,0,0,0,17,6,22.4,22.4,0,0,0,5,20,21.794,21.794,0,0,0,6,34c1.613,3.891,5.281,9.623,12,12,2.854,1.01,7.2,1.6,13,0,7.173-1.981,10.992-5.323,13-9a17.1,17.1,0,0,0,2-9H39Z" transform="translate(-0.141 -2.313)"/>
</svg>
