<svg xmlns="http://www.w3.org/2000/svg" xmlns:xlink="http://www.w3.org/1999/xlink" width="20" height="20" viewBox="0 0 20 20">
  <defs>
    <style>
      .cls-1 {
        filter: url(#filter);
      }

      .cls-2 {
        fill: #525252;
      }

      .cls-2, .cls-3 {
        fill-rule: evenodd;
      }

      .cls-3 {
        fill: #515151;
      }
    </style>
    <filter id="filter" filterUnits="userSpaceOnUse">
      <feFlood result="flood" flood-color="#7b7b7b"/>
      <feComposite result="composite" operator="in" in2="SourceGraphic"/>
      <feBlend result="blend" in2="SourceGraphic"/>
    </filter>
  </defs>
  <g id="Catch">
    <g class="cls-1">
      <path id="_" data-name="{" class="cls-2" d="M1226.83,9.2v1.018s-1.74.2-1.85-1.018a9.634,9.634,0,0,0-.1-1.758c-0.12-.469-0.07-0.608-0.83-0.74V5.683a0.766,0.766,0,0,0,.83-0.74l0.1-1.573s0.1-1.411,1.85-1.111V3.277h-0.37a0.507,0.507,0,0,0-.47.278v1.2a1.419,1.419,0,0,1-.74,1.388V6.331a1.235,1.235,0,0,1,.74,1.388V8.83a0.556,0.556,0,0,0,.47.37h0.37Z" transform="translate(-1221 -1)"/>
      <path id="_2" data-name="&quot;" class="cls-2" d="M1235.16,11.236v1.481h0.74a1.221,1.221,0,0,1-.93,1.111l0.37,0.648a1.894,1.894,0,0,0,1.3-1.758V11.236h-1.48Zm2.31,0v1.481h0.74a1.205,1.205,0,0,1-.93,1.111l0.37,0.648a1.882,1.882,0,0,0,1.3-1.758V11.236h-1.48Zm-3.05,7.015v1.023s-1.74.2-1.86-1.023a9.466,9.466,0,0,0-.09-1.766c-0.12-.471-0.07-0.61-0.83-0.744V14.719a0.767,0.767,0,0,0,.83-0.744l0.09-1.58s0.1-1.417,1.86-1.115V12.3h-0.37a0.506,0.506,0,0,0-.47.279v1.208a1.427,1.427,0,0,1-.74,1.394v0.186a1.241,1.241,0,0,1,.74,1.394v1.115a0.541,0.541,0,0,0,.47.372h0.37Z" transform="translate(-1221 -1)"/>
      <path id="arrow" class="cls-3" d="M1226.23,11.42v2.705a0.836,0.836,0,0,0,.8.8h1.91l-0.64-.637a0.472,0.472,0,0,1,.64-0.636l1.59,1.591-1.75,1.91a0.534,0.534,0,0,1-.64-0.637l0.96-.8h-2.23a1.688,1.688,0,0,1-1.43-1.591V11.42S1225.66,11,1226.23,11.42Z" transform="translate(-1221 -1)"/>
    </g>
  </g>
</svg>
