<svg xmlns="http://www.w3.org/2000/svg" xmlns:xlink="http://www.w3.org/1999/xlink" width="20" height="20" viewBox="0 0 20 20">
  <defs>
    <style>
      .cls-1 {
        filter: url(#filter);
      }

      .cls-2 {
        fill-rule: evenodd;
      }
    </style>
    <filter id="filter" filterUnits="userSpaceOnUse">
      <feFlood result="flood" flood-color="#7b7b7b"/>
      <feComposite result="composite" operator="in" in2="SourceGraphic"/>
      <feBlend result="blend" in2="SourceGraphic"/>
    </filter>
  </defs>
  <g id="date">
    <g class="cls-1">
      <path class="cls-2" d="M631.087,3.415H646.9V17.868H631.087V3.415h0Zm7.271,8.862v3.08a0.682,0.682,0,0,0,.4.533,0.651,0.651,0,0,0,.461.009,0.751,0.751,0,0,0,.47-0.56V10.614a0.66,0.66,0,0,0-.777-0.6,0.7,0.7,0,0,0-.407.226l-1.239,1.238a0.689,0.689,0,0,0-.208.551,0.676,0.676,0,0,0,.153.361,0.665,0.665,0,0,0,.416.253,0.679,0.679,0,0,0,.434-0.108,0.833,0.833,0,0,0,.263-0.244S638.363,12.25,638.358,12.276Zm-7.271-4.932h15.826V8.672H631.087V7.344h0Zm10.472,10.542V13.18a0.768,0.768,0,0,1,.67-0.641h4.684v1.436h-3.952v3.939Zm-6.52-15.8h1.338V6.043h-1.338V2.087h0Zm3.283,0h1.338V6.043h-1.338V2.087h0Zm3.31,0h1.338V6.043h-1.338V2.087h0Zm5.272,11.9v1.879a1.93,1.93,0,0,1-1.989,2.006h-1.963Z" transform="translate(-629)"/>
      <path id="q_copy_2" data-name="q copy 2" class="cls-2" d="M635.708,2.087a0.669,0.669,0,0,1,.669.669V3.424h-1.338V2.756A0.669,0.669,0,0,1,635.708,2.087Zm3.292,0a0.669,0.669,0,0,1,.669.669V3.424h-1.338V2.756A0.669,0.669,0,0,1,639,2.087Zm3.292,0a0.669,0.669,0,0,1,.669.669V3.424h-1.338V2.756A0.669,0.669,0,0,1,642.292,2.087Z" transform="translate(-629)"/>
    </g>
  </g>
</svg>
