<svg xmlns="http://www.w3.org/2000/svg" xmlns:xlink="http://www.w3.org/1999/xlink" width="20" height="20" viewBox="0 0 20 20">
  <defs>
    <style>
      .cls-1 {
        fill: #7b7b7b;
        fill-rule: evenodd;
        filter: url(#filter);
      }
    </style>
    <filter id="filter" x="370.719" y="3.625" width="18.156" height="12.75" filterUnits="userSpaceOnUse">
      <feFlood result="flood" flood-color="#7b7b7b"/>
      <feComposite result="composite" operator="in" in2="SourceGraphic"/>
      <feBlend result="blend" in2="SourceGraphic"/>
    </filter>
  </defs>
  <g id="Document_Array" data-name="Document Array">
    <path class="cls-1" d="M374.453,3.63h-0.341c-1.379,0-2.352.624-2.352,2.095a9.168,9.168,0,0,0,.129,1.327,9.39,9.39,0,0,1,.13,1.343,1.079,1.079,0,0,1-1.314,1.183v0.815a1.1,1.1,0,0,1,1.314,1.183,8.75,8.75,0,0,1-.13,1.3,8.942,8.942,0,0,0-.129,1.31c0,1.615,1,2.19,2.352,2.19h0.341V15.492h-0.292a1.175,1.175,0,0,1-1.282-1.392,7.175,7.175,0,0,1,.113-1.15,7.089,7.089,0,0,0,.114-1.216,1.537,1.537,0,0,0-1.168-1.742V9.961a1.53,1.53,0,0,0,1.168-1.727,7.236,7.236,0,0,0-.114-1.215,6.991,6.991,0,0,1-.113-1.135,1.155,1.155,0,0,1,1.282-1.375h0.292V3.63m11.018,0H385.13V4.51h0.291A1.156,1.156,0,0,1,386.7,5.884a6.884,6.884,0,0,1-.114,1.135,7.343,7.343,0,0,0-.113,1.215,1.53,1.53,0,0,0,1.167,1.727V9.993a1.537,1.537,0,0,0-1.167,1.742,7.193,7.193,0,0,0,.113,1.216,7.066,7.066,0,0,1,.114,1.15,1.175,1.175,0,0,1-1.283,1.392H385.13V16.37h0.341c1.346,0,2.352-.575,2.352-2.19a9.082,9.082,0,0,0-.129-1.31,8.752,8.752,0,0,1-.131-1.3,1.1,1.1,0,0,1,1.315-1.183V9.577a1.08,1.08,0,0,1-1.315-1.183,9.392,9.392,0,0,1,.131-1.343,9.311,9.311,0,0,0,.129-1.327c0-1.471-.973-2.095-2.352-2.095M375.7,9.207a0.976,0.976,0,0,0-1,1.033,0.99,0.99,0,1,0,1.979,0,0.963,0.963,0,0,0-.981-1.033m3.774,0a0.976,0.976,0,0,0-1,1.033,0.99,0.99,0,1,0,1.979,0,0.963,0.963,0,0,0-.981-1.033m3.774,0a0.976,0.976,0,0,0-1,1.033,0.99,0.99,0,1,0,1.979,0,0.963,0.963,0,0,0-.98-1.033" transform="translate(-370)"/>
  </g>
</svg>
