<svg xmlns="http://www.w3.org/2000/svg" xmlns:xlink="http://www.w3.org/1999/xlink" width="20" height="20" viewBox="0 0 20 20">
  <defs>
    <style>
      .cls-1 {
        filter: url(#filter);
      }

      .cls-2 {
        fill-rule: evenodd;
      }
    </style>
    <filter id="filter" filterUnits="userSpaceOnUse">
      <feFlood result="flood" flood-color="#7b7b7b"/>
      <feComposite result="composite" operator="in" in2="SourceGraphic"/>
      <feBlend result="blend" in2="SourceGraphic"/>
    </filter>
  </defs>
  <g id="Flow">
    <g class="cls-1">
      <path id="Rectangle_1_copy_2" data-name="Rectangle 1 copy 2" class="cls-2" d="M113.3,1.651h5.25a1,1,0,0,1,1,1V5.545a1,1,0,0,1-1,1H113.3a1,1,0,0,1-1-1V2.651A1,1,0,0,1,113.3,1.651Zm0.889,0.6h3.472a1,1,0,0,1,1,1V4.945a1,1,0,0,1-1,1h-3.472a1,1,0,0,1-1-1V3.251A1,1,0,0,1,114.189,2.251Zm-0.077.669h3.625a0.362,0.362,0,0,1,.363.363h0a0.362,0.362,0,0,1-.363.363h-3.625a0.362,0.362,0,0,1-.362-0.363h0A0.362,0.362,0,0,1,114.112,2.92Zm0,1.631h2.357a0.362,0.362,0,0,1,.362.363h0a0.362,0.362,0,0,1-.362.363h-2.357a0.362,0.362,0,0,1-.362-0.363h0A0.362,0.362,0,0,1,114.112,4.551Zm5.438-.181h8.7a0.718,0.718,0,0,1,.544.906V9.082a0.872,0.872,0,0,1-.544.544H113.387a1.273,1.273,0,0,0-1.087,1.088v4.713a1.394,1.394,0,0,0,1.268.906h9.788l-0.725.725s-0.284.622,0.544,0.363l1.631-1.45-1.631-1.631a0.411,0.411,0,0,0-.544.544l0.725,0.725h-9.788a0.848,0.848,0,0,1-.543-0.725V10.9a0.788,0.788,0,0,1,.725-0.544h14.5a1.451,1.451,0,0,0,1.269-1.269V4.732a1.312,1.312,0,0,0-1.087-.906H119.55V4.37Zm2.483-.268,1.843-1.745h0L125.621,4.2h0l-1.843,1.745h0L122.033,4.1h0Zm0.724,0.02,1.1-1.04h0l1.04,1.1h0l-1.1,1.04h0l-1.041-1.1h0ZM114.964,9.9l1.843-1.745h0L118.552,10h0l-1.843,1.745h0L114.964,9.9h0Zm0.724,0.02,1.1-1.04h0l1.04,1.1h0l-1.1,1.04h0l-1.041-1.1h0Zm5.734-2.267h5.251a1,1,0,0,1,1,1v2.894a1,1,0,0,1-1,1h-5.251a1,1,0,0,1-1-1V8.655A1,1,0,0,1,121.422,7.655Zm0.889,0.6h3.472a1,1,0,0,1,1,1v1.694a1,1,0,0,1-1,1h-3.472a1,1,0,0,1-1-1V9.255A1,1,0,0,1,122.311,8.255Zm-0.133.465h3.807a0.272,0.272,0,0,1,0,.544h-3.807A0.272,0.272,0,1,1,122.178,8.72Zm0.181,2.356H124.9a0.272,0.272,0,1,1,0,.544h-2.538A0.272,0.272,0,0,1,122.359,11.076Zm-6.918,2.379h5.25a1,1,0,0,1,1,1v2.894a1,1,0,0,1-1,1h-5.25a1,1,0,0,1-1-1V14.455A1,1,0,0,1,115.441,13.455Zm0.889,0.6H119.8a1,1,0,0,1,1,1v1.694a1,1,0,0,1-1,1H116.33a1,1,0,0,1-1-1V15.055A1,1,0,0,1,116.33,14.055Zm-0.133.465H120a0.272,0.272,0,1,1,0,.544H116.2A0.272,0.272,0,1,1,116.2,14.52Zm0,2.356h2.537a0.272,0.272,0,1,1,0,.544H116.2A0.272,0.272,0,1,1,116.2,16.877Zm-1.9-1.269h1.088v0.725h-1.088V15.608h0Zm6.526,0h0.906v0.725h-0.906V15.608h0Zm-0.363-5.982h0.907v0.725h-0.907V9.626h0Zm6.344,0h0.907v0.725H126.8V9.626h0Z" transform="translate(-111)"/>
    </g>
  </g>
</svg>
