<svg xmlns="http://www.w3.org/2000/svg" xmlns:xlink="http://www.w3.org/1999/xlink" width="20" height="20" viewBox="0 0 20 20">
  <defs>
    <style>
      .cls-1 {
        filter: url(#filter);
      }

      .cls-2 {
        fill: #0840a6;
      }

      .cls-2, .cls-3 {
        fill-rule: evenodd;
      }
    </style>
    <filter id="filter" filterUnits="userSpaceOnUse">
      <feFlood result="flood" flood-color="#7b7b7b"/>
      <feComposite result="composite" operator="in" in2="SourceGraphic"/>
      <feBlend result="blend" in2="SourceGraphic"/>
    </filter>
  </defs>
  <g id="Integer_array" data-name="Integer  array">
    <g class="cls-1">
      <g>
        <path id="Shape_4_copy" data-name="Shape 4 copy" class="cls-2" d="M535.915,18H520V3.212h1.326V2.606h1.447V2H537V15.455h-0.482v1.455h-0.6V18ZM520.362,3.576V17.515h15.191V16.788H521.326V3.576h-0.964Zm1.205-.606V16.424h14.589v-0.97h-13.5V2.97h-1.085Zm1.447-.485h13.624V15.091H523.014V2.485Z" transform="translate(-518)"/>
        <path id="_12_copy" data-name="12 copy" class="cls-3" d="M525.91,8.541h-1.3V7.262h1.3v-0.7h1.3v5.346h1.3V13.19h-3.894V11.911h1.3V8.541Zm4.72-.7h2.714V9.238h-1.652a1.608,1.608,0,0,0-1.062,1.046V13.2h3.894v-1.29h-2.6V10.517h1.416a1.45,1.45,0,0,0,1.3-1.162V7.727a1.426,1.426,0,0,0-1.18-1.162H530.63V7.843Z" transform="translate(-518)"/>
      </g>
    </g>
  </g>
</svg>
