<svg xmlns="http://www.w3.org/2000/svg" width="20" height="20" viewBox="0 0 20 20">
  <defs>
    <style>
      .cls-1 {
        fill: #7b7b7b;
        fill-rule: evenodd;
      }
    </style>
  </defs>
  <g id="invoke">
    <g id="T_C" data-name="T C">
      <path class="cls-1" d="M1111.45,30.553h5.92a0.447,0.447,0,1,1,0,.894h-5.92A0.447,0.447,0,1,1,1111.45,30.553Zm10.8-.013H1127l-0.73-.731s-0.16-.934.91-0.548l1.82,1.828-2,1.828s-1,.091-0.73-0.731l0.91-.731h-4.93V30.54Z" transform="translate(-1110 -21)"/>
      <path class="cls-1" d="M1120.21,34h-0.38a0.8,0.8,0,0,1-.82-0.782,0.259,0.259,0,0,0-.04-0.146,0.348,0.348,0,0,0-.46-0.119,0.844,0.844,0,0,1-1.12-.3l-0.18-.31a0.762,0.762,0,0,1,.29-1.065,0.312,0.312,0,0,0,0-.555,0.765,0.765,0,0,1-.29-1.067l0.2-.321a0.836,0.836,0,0,1,1.11-.284,0.347,0.347,0,0,0,.16.044,0.325,0.325,0,0,0,.33-0.316,0.778,0.778,0,0,1,.24-0.549,0.842,0.842,0,0,1,.58-0.23h0.38a0.82,0.82,0,0,1,.58.237,0.775,0.775,0,0,1,.24.568,0.249,0.249,0,0,0,.04.139,0.324,0.324,0,0,0,.2.148,0.369,0.369,0,0,0,.26-0.034,0.831,0.831,0,0,1,1.11.287l0.19,0.311a0.03,0.03,0,0,1,.01.027,0.757,0.757,0,0,1-.31,1.039,0.339,0.339,0,0,0-.12.116,0.3,0.3,0,0,0-.03.243,0.326,0.326,0,0,0,.15.193,0.757,0.757,0,0,1,.38.475,0.73,0.73,0,0,1-.08.594l-0.2.319a0.836,0.836,0,0,1-1.11.282,0.386,0.386,0,0,0-.17-0.043,0.328,0.328,0,0,0-.23.093,0.28,0.28,0,0,0-.09.227A0.809,0.809,0,0,1,1120.21,34Zm-1.53-1.551a0.868,0.868,0,0,1,.21.026,0.781,0.781,0,0,1,.49.364,0.715,0.715,0,0,1,.11.377,0.33,0.33,0,0,0,.34.322h0.38a0.326,0.326,0,0,0,.33-0.319,0.781,0.781,0,0,1,.24-0.553,0.878,0.878,0,0,1,.58-0.228,0.905,0.905,0,0,1,.4.1,0.335,0.335,0,0,0,.45-0.116l0.2-.319a0.29,0.29,0,0,0,.04-0.239,0.342,0.342,0,0,0-.16-0.194,0.792,0.792,0,0,1-.38-0.475,0.77,0.77,0,0,1,.08-0.593,0.828,0.828,0,0,1,.3-0.284,0.311,0.311,0,0,0,.12-0.434c0-.007-0.01-0.014-0.01-0.021l-0.18-.292a0.335,0.335,0,0,0-.45-0.118,0.869,0.869,0,0,1-.62.081,0.819,0.819,0,0,1-.5-0.36,0.718,0.718,0,0,1-.11-0.377,0.3,0.3,0,0,0-.09-0.242,0.339,0.339,0,0,0-.24-0.1h-0.38a0.36,0.36,0,0,0-.24.094,0.315,0.315,0,0,0-.09.226,0.813,0.813,0,0,1-.82.775,0.837,0.837,0,0,1-.4-0.106,0.338,0.338,0,0,0-.45.12l-0.21.321a0.313,0.313,0,0,0,.13.432,0.773,0.773,0,0,1,0,1.354,0.314,0.314,0,0,0-.13.434l0.19,0.313a0.348,0.348,0,0,0,.21.157,0.335,0.335,0,0,0,.25-0.029A0.882,0.882,0,0,1,1118.68,32.449Zm1.34-.459a0.991,0.991,0,1,1,1.04-.99A1.019,1.019,0,0,1,1120.02,31.99Zm0-1.519a0.529,0.529,0,1,0,0,1.058A0.529,0.529,0,1,0,1120.02,30.471Z" transform="translate(-1110 -21)"/>
    </g>
  </g>
</svg>
