<svg xmlns="http://www.w3.org/2000/svg" width="20" height="20" viewBox="0 0 20 20">
  <defs>
    <style>
      .cls-1 {
        fill: #7b7b7b;
        fill-rule: evenodd;
      }
    </style>
  </defs>
  <g id="invoke">
    <g id="T_C_big_center" data-name="T C big center">
      <path class="cls-1" d="M1111.12,10.036h5.51a0.1,0.1,0,0,1,.09.11v0.707a0.1,0.1,0,0,1-.09.11h-5.51a0.111,0.111,0,0,1-.11-0.11V10.146A0.111,0.111,0,0,1,1111.12,10.036Zm11.81-.013h4.06l-0.73-.759s-0.16-.97.91-0.569l1.82,1.9-2,1.9s-1,.094-0.73-0.759l0.91-.759h-4.24V10.023Z" transform="translate(-1110)"/>
      <path class="cls-1" d="M1120.06,14.986h-0.55a1.168,1.168,0,0,1-1.17-1.169,0.444,0.444,0,0,0-.07-0.219,0.473,0.473,0,0,0-.65-0.178,1.193,1.193,0,0,1-.9.108,1.149,1.149,0,0,1-.71-0.558l-0.27-.463a1.157,1.157,0,0,1,.43-1.592,0.479,0.479,0,0,0,0-.83,1.161,1.161,0,0,1-.43-1.6l0.29-.48a1.181,1.181,0,0,1,1.6-.424,0.471,0.471,0,0,0,.71-0.407,1.166,1.166,0,0,1,1.17-1.164h0.55a1.185,1.185,0,0,1,1.18,1.2,0.417,0.417,0,0,0,.06.207,0.466,0.466,0,0,0,.29.221,0.5,0.5,0,0,0,.37-0.051,1.189,1.189,0,0,1,1.61.429l0.27,0.465a0.077,0.077,0,0,0,.02.04,1.174,1.174,0,0,1-.45,1.554,0.437,0.437,0,0,0-.18.173,0.468,0.468,0,0,0,.18.653,1.16,1.16,0,0,1,.43,1.6l-0.29.477a1.2,1.2,0,0,1-1.61.422,0.494,0.494,0,0,0-.23-0.065,0.43,0.43,0,0,0-.33.139,0.477,0.477,0,0,0-.14.339A1.181,1.181,0,0,1,1120.06,14.986Zm-2.2-2.319a1.188,1.188,0,0,1,.3.039,1.161,1.161,0,0,1,.71.545,1.108,1.108,0,0,1,.16.563,0.484,0.484,0,0,0,.48.482h0.55a0.482,0.482,0,0,0,.48-0.477,1.136,1.136,0,0,1,.35-0.826,1.219,1.219,0,0,1,.83-0.341,1.206,1.206,0,0,1,.57.156,0.487,0.487,0,0,0,.66-0.174l0.29-.477a0.446,0.446,0,0,0,.04-0.358,0.462,0.462,0,0,0-.22-0.29,1.171,1.171,0,0,1-.55-0.71,1.165,1.165,0,0,1,.55-1.312,0.473,0.473,0,0,0,.17-0.65c0-.01-0.01-0.021-0.01-0.032l-0.26-.436a0.475,0.475,0,0,0-.65-0.177,1.184,1.184,0,0,1-1.61-.417,1.113,1.113,0,0,1-.16-0.564,0.464,0.464,0,0,0-.13-0.362,0.494,0.494,0,0,0-.35-0.145h-0.55a0.469,0.469,0,0,0-.33.14,0.437,0.437,0,0,0-.14.337,1.171,1.171,0,0,1-1.76,1,0.481,0.481,0,0,0-.65.179l-0.29.48a0.48,0.48,0,0,0,.17.646,1.164,1.164,0,0,1,0,2.025,0.481,0.481,0,0,0-.17.649l0.27,0.469a0.491,0.491,0,0,0,.3.235,0.469,0.469,0,0,0,.36-0.043A1.187,1.187,0,0,1,1117.86,12.666Zm1.93-.686a1.481,1.481,0,1,1,1.49-1.481A1.488,1.488,0,0,1,1119.79,11.981Zm0-2.271a0.791,0.791,0,1,0,.8.791A0.8,0.8,0,0,0,1119.79,9.709Z" transform="translate(-1110)"/>
    </g>
  </g>
</svg>
