<svg xmlns="http://www.w3.org/2000/svg" xmlns:xlink="http://www.w3.org/1999/xlink" width="20" height="20" viewBox="0 0 20 20">
  <defs>
    <style>
      .cls-1 {
        fill-rule: evenodd;
        filter: url(#filter);
      }
    </style>
    <filter id="filter" x="225.938" y="1.469" width="12.25" height="16.5" filterUnits="userSpaceOnUse">
      <feFlood result="flood" flood-color="#7b7b7b"/>
      <feComposite result="composite" operator="in" in2="SourceGraphic"/>
      <feBlend result="blend" in2="SourceGraphic"/>
    </filter>
  </defs>
  <g id="Jar_Dependency" data-name="Jar/Dependency">
    <path id="cup" class="cls-1" d="M233.079,1.465s0.236,1.36-.212,1.512-4.7,2.77-3.178,4.969L231.6,9.891s0.667,0.43,0-.432c0,0-1.407-1.919-.636-2.809l2.331-2.809A2.107,2.107,0,0,0,233.079,1.465Zm2.542,2.592s-4.03.6-3.6,3.241c0,0,1.5,1.467.847,2.376l-0.212.432s1.116,0.13,1.271-1.728c0,0-1.376-1.93-.423-2.376C233.5,6,234.417,5.11,235.621,4.058ZM229.9,9.675s-2.213.673-.636,0.864a41.764,41.764,0,0,0,5.721-.216,4.677,4.677,0,0,1-1.483.864s-7.495.687-6.568-.864C226.935,10.323,227.693,9.353,229.9,9.675Zm-0.636,1.944s-0.42.606,0.636,0.648a12.725,12.725,0,0,0,3.6-.432,1.027,1.027,0,0,1,1.059.864c-0.136.194-4.434,1.1-6.356-.216A0.869,0.869,0,0,1,229.265,11.619Zm0.636,1.728s-0.238.441,0.424,0.432a8.48,8.48,0,0,0,2.754-.216A1.069,1.069,0,0,1,234.35,14s-3.031,2.008-5.72,0C228.63,14,228.467,12.909,229.9,13.347Zm-1.483,1.08s-2.011.3-.424,1.08a15.284,15.284,0,0,0,3.192.474c2.43,0.085,5.321-.327,5.071-1.77,0,0,1.388.373,0.424,1.3,0,0-1.491,1.582-6.145,1.3,0,0-5.592-.323-4.449-2.16A1.773,1.773,0,0,1,228.418,14.427ZM227.994,16.8s7.285,1.756,10.17-1.3a0.9,0.9,0,0,1-.212.864S234.273,19.669,227.994,16.8Zm7.416-6.7s3.053,0.193-.212,3.025c0,0,3.26-.367,2.118-3.241A1.661,1.661,0,0,0,235.41,10.107Z" transform="translate(-222)"/>
  </g>
</svg>
