<svg xmlns="http://www.w3.org/2000/svg" width="20" height="20" viewBox="0 0 20 20">
  <defs>
    <style>
      .cls-1 {
        fill: #7b7b7b;
        fill-rule: evenodd;
      }
    </style>
  </defs>
  <g id="loop">
    <path class="cls-1" d="M1165.22,29.464a4.468,4.468,0,0,0-7.88.369,9.724,9.724,0,0,0-.82,2.418,4.32,4.32,0,0,1-2.68,3.283,3.258,3.258,0,0,1-3.27-.5,3.677,3.677,0,0,1-1.38-3.225,3.579,3.579,0,0,1,1.8-2.887,3.34,3.34,0,0,1,2.92-.185l-0.02.006q-0.36.121-.72,0.233a0.714,0.714,0,0,0-.41.282,0.6,0.6,0,0,0-.03.667,0.566,0.566,0,0,0,.64.268c0.71-.207,1.44-0.432,2.18-0.667a0.7,0.7,0,0,0,.39-0.874c-0.1-.367-0.2-0.733-0.31-1.1l-0.28-.991-0.03-.106a0.633,0.633,0,0,0-.74-0.44,0.693,0.693,0,0,0-.37.842c0.06,0.2.11,0.4,0.17,0.6l0.05,0.174a4.5,4.5,0,0,0-3.84.108,4.777,4.777,0,0,0-2.53,3.635,4.98,4.98,0,0,0,.87,3.615,4.56,4.56,0,0,0,3.07,1.9,4.744,4.744,0,0,0,3.78-1.173,5.634,5.634,0,0,0,1.89-3.352,6.061,6.061,0,0,1,.89-2.291,3.345,3.345,0,0,1,2.81-1.59h0.08a3.509,3.509,0,0,1,3.26,2.888,3.615,3.615,0,0,1-2.67,4.3,3.158,3.158,0,0,1-2.57-.443,0.608,0.608,0,0,0-.47-0.118,0.547,0.547,0,0,0-.35.289,0.627,0.627,0,0,0-.08.456,0.753,0.753,0,0,0,.3.4,4.274,4.274,0,0,0,2.4.72,5.014,5.014,0,0,0,.57-0.033,4.722,4.722,0,0,0,3.99-3.583A5.034,5.034,0,0,0,1165.22,29.464Z" transform="translate(-1147 -21)"/>
  </g>
</svg>
