<svg xmlns="http://www.w3.org/2000/svg" xmlns:xlink="http://www.w3.org/1999/xlink" width="20" height="20" viewBox="0 0 20 20">
  <defs>
    <style>
      .cls-1 {
        filter: url(#filter);
      }

      .cls-2 {
        fill: #7b7b7b;
        fill-rule: evenodd;
      }
    </style>
    <filter id="filter" filterUnits="userSpaceOnUse">
      <feFlood result="flood" flood-color="#7b7b7b"/>
      <feComposite result="composite" operator="in" in2="SourceGraphic"/>
      <feBlend result="blend" in2="SourceGraphic"/>
    </filter>
  </defs>
  <g id="map">
    <g class="cls-1">
      <path class="cls-2" d="M1090.54,33.888l-2.04-2.1a0.612,0.612,0,0,0-.88-0.028,0.656,0.656,0,0,0-.03.9l0.03,0.029,1.42,1.464a5.728,5.728,0,0,1-4.15-1.787,0.6,0.6,0,0,0-.86.037s-0.01.01-.01,0.015l-0.01.013a0.651,0.651,0,0,0,.05.882,6.824,6.824,0,0,0,4.99,2.118l-1.43,1.464a0.644,0.644,0,0,0-.06.9,0.6,0.6,0,0,0,.87.068,0.342,0.342,0,0,0,.07-0.07l2.04-2.1A1.291,1.291,0,0,0,1090.54,33.888Zm-1.5-6.117-1.42,1.462-0.03.052a0.644,0.644,0,0,0,.08.891,0.609,0.609,0,0,0,.83-0.041l1.06-1.088,0.98-1.012a1.319,1.319,0,0,0,.29-1.34,1.233,1.233,0,0,0-.29-0.465l-2.04-2.1a0.612,0.612,0,0,0-.88-0.037,0.646,0.646,0,0,0-.03.9l0.03,0.037,1.43,1.463c-3.07.008-4.75,1.707-6.27,3.494-1.39-1.623-3.05-3.242-5.85-3.468l-0.3-.029a0.639,0.639,0,0,0,0,1.277c0.04,0,.18.021,0.18,0.021,2.42,0.188,3.8,1.589,5.15,3.171-1.34,1.574-2.72,3-5.12,3.166l-0.24.013a0.632,0.632,0,0,0-.58.673,0.619,0.619,0,0,0,.65.594c0.1,0,.26-0.008.33-0.015,3.12-.247,4.81-2.3,6.32-4.091C1084.84,29.494,1086.28,27.782,1089.04,27.77Z" transform="translate(-1073 -21)"/>
    </g>
  </g>
</svg>
