<svg xmlns="http://www.w3.org/2000/svg" width="20" height="20" viewBox="0 0 20 20">
  <defs>
    <style>
      .cls-1 {
        fill: #7b7b7b;
      }

      .cls-1, .cls-2 {
        fill-rule: evenodd;
      }

      .cls-2 {
        fill: #ff4343;
      }
    </style>
  </defs>
  <g id="Main_Package" data-name="Main Package">
    <g>
      <path id="Shape_1_copy_2" data-name="Shape 1 copy 2" class="cls-1" d="M1070.98,22h-9.57a3.417,3.417,0,0,0-3.41,3.415V26.1a2.06,2.06,0,0,0,.68,1.526v7.353a3.425,3.425,0,0,0,3.42,3.415h8.19a3.419,3.419,0,0,0,3.42-3.415V27.624a2.06,2.06,0,0,0,.68-1.526V25.415A3.417,3.417,0,0,0,1070.98,22Zm-11.61,3.415a2.042,2.042,0,0,1,2.04-2.049h9.57a2.042,2.042,0,0,1,2.04,2.049V26.1a0.679,0.679,0,0,1-.68.683h-12.29a0.679,0.679,0,0,1-.68-0.683V25.415Zm12.97,9.561a2.051,2.051,0,0,1-2.05,2.049h-8.19a2.051,2.051,0,0,1-2.05-2.049v-6.83h12.29v6.83Z" transform="translate(-1056 -20)"/>
      <path class="cls-2" d="M1064.15,31.562h4.09a0.683,0.683,0,1,0,0-1.366h-4.09A0.683,0.683,0,1,0,1064.15,31.562Z" transform="translate(-1056 -20)"/>
    </g>
  </g>
</svg>
