<svg xmlns="http://www.w3.org/2000/svg" width="24.06" height="18.062" viewBox="0 0 24.06 18.062">
  <defs>
    <style>
      .cls-1 {
        fill: #7c7c7c;
        fill-rule: evenodd;
      }
    </style>
  </defs>
  <path class="cls-1" d="M6202.99,45.024h-18.05a3.013,3.013,0,0,1-3-3.008V29.984a3.013,3.013,0,0,1,3-3.008h18.05a3.015,3.015,0,0,1,3.01,3.008V42.016A3.015,3.015,0,0,1,6202.99,45.024ZM6184.94,28.48a1.51,1.51,0,0,0-1.5,1.5V42.016a1.51,1.51,0,0,0,1.5,1.5h18.05a1.512,1.512,0,0,0,1.51-1.5V29.984a1.512,1.512,0,0,0-1.51-1.5h-18.05Zm6.77,11.28a0.657,0.657,0,0,1-.37-0.075,0.783,0.783,0,0,1-.38-0.677V32.992a0.783,0.783,0,0,1,.38-0.677,0.68,0.68,0,0,1,.75,0l5.26,3.008a0.793,0.793,0,0,1,0,1.354l-5.26,3.008A0.691,0.691,0,0,1,6191.71,39.76Z" transform="translate(-6181.94 -26.969)"/>
</svg>
