<svg xmlns="http://www.w3.org/2000/svg" xmlns:xlink="http://www.w3.org/1999/xlink" width="20" height="20" viewBox="0 0 20 20">
  <defs>
    <style>
      .cls-1 {
        filter: url(#filter);
      }

      .cls-2 {
        fill: #525252;
      }

      .cls-2, .cls-3 {
        fill-rule: evenodd;
      }

      .cls-3 {
        fill: #515151;
      }
    </style>
    <filter id="filter" filterUnits="userSpaceOnUse">
      <feFlood result="flood" flood-color="#7b7b7b"/>
      <feComposite result="composite" operator="in" in2="SourceGraphic"/>
      <feBlend result="blend" in2="SourceGraphic"/>
    </filter>
  </defs>
  <g id="try">
    <g id="_2" data-name="2" class="cls-1">
      <path id="_" data-name="{" class="cls-2" d="M1190.94,8.349V9.422s-1.83.212-1.95-1.072a9.74,9.74,0,0,0-.1-1.852c-0.13-.494-0.08-0.64-0.88-0.78V4.646a0.809,0.809,0,0,0,.88-0.78l0.1-1.657s0.11-1.486,1.95-1.17V2.112h-0.39a0.523,0.523,0,0,0-.49.292V3.671a1.486,1.486,0,0,1-.78,1.462V5.328a1.3,1.3,0,0,1,.78,1.462V7.96a0.572,0.572,0,0,0,.49.39h0.39Z" transform="translate(-1184)"/>
      <path id="_2-2" data-name="}" class="cls-2" d="M1198.06,17.884v1.077s1.83,0.213,1.95-1.077a9.831,9.831,0,0,1,.1-1.861c0.13-.5.08-0.643,0.88-0.783V14.163a0.809,0.809,0,0,1-.88-0.783l-0.1-1.665s-0.11-1.493-1.95-1.175v1.077h0.39a0.522,0.522,0,0,1,.49.294v1.273a1.5,1.5,0,0,0,.78,1.469v0.2a1.3,1.3,0,0,0-.78,1.469v1.175a0.573,0.573,0,0,1-.49.392h-0.39Z" transform="translate(-1184)"/>
      <path id="arrow" class="cls-3" d="M1191.04,14.392l4.17-.018-0.67-.67a0.5,0.5,0,0,1,.67-0.67l1.68,1.676-1.84,2.011a0.558,0.558,0,0,1-.67-0.67l1-.838h-4.3Z" transform="translate(-1184)"/>
      <path class="cls-3" d="M1191.04,14.392h4.48V15.27h-4.48V14.392h0Z" transform="translate(-1184)"/>
    </g>
  </g>
</svg>
