<svg xmlns="http://www.w3.org/2000/svg" xmlns:xlink="http://www.w3.org/1999/xlink" width="20" height="20" viewBox="0 0 20 20">
  <defs>
    <style>
      .cls-1 {
        fill-rule: evenodd;
        filter: url(#filter);
      }
    </style>
    <filter id="filter" x="181" y="661.031" width="17.188" height="17.157" filterUnits="userSpaceOnUse">
      <feFlood result="flood" flood-color="#7b7b7b"/>
      <feComposite result="composite" operator="in" in2="SourceGraphic"/>
      <feBlend result="blend" in2="SourceGraphic"/>
    </filter>
  </defs>
  <g id="Service">
    <path id="S" class="cls-1" d="M190.9,668.39l0.63-.167a1.8,1.8,0,0,0-.231-0.6,1.648,1.648,0,0,0-.424-0.476,2.157,2.157,0,0,0-.758-0.3,2.965,2.965,0,0,0-.951-0.025,2.544,2.544,0,0,0-.938.3,1.512,1.512,0,0,0-.566.694,1.423,1.423,0,0,0-.064.836,1.362,1.362,0,0,0,.373.669,1.467,1.467,0,0,0,.629.348,6.019,6.019,0,0,0,.643.167c0.3,0.053.533,0.138,0.835,0.18a1.038,1.038,0,0,1,.694.309,0.955,0.955,0,0,1-.013,1.17,1.256,1.256,0,0,1-.617.309,2.346,2.346,0,0,1-.912.013,1.9,1.9,0,0,1-.758-0.283,1.157,1.157,0,0,1-.36-0.7l-0.617.193a1.616,1.616,0,0,0,.334.772,1.689,1.689,0,0,0,.6.463,3.091,3.091,0,0,0,1.067.193,3.358,3.358,0,0,0,.964-0.116,2.048,2.048,0,0,0,.8-0.45,1.54,1.54,0,0,0,.373-0.785,1.462,1.462,0,0,0-.1-0.926,1.564,1.564,0,0,0-.642-0.63,2.4,2.4,0,0,0-.836-0.257c-0.328-.062-0.57-0.165-0.9-0.219a1.086,1.086,0,0,1-.784-0.373,0.778,0.778,0,0,1-.077-0.695,0.963,0.963,0,0,1,.462-0.463,2.214,2.214,0,0,1,1.555,0,1.231,1.231,0,0,1,.476.489A1.115,1.115,0,0,1,190.9,668.39Zm-5.192-.679-1.219-1.22a2.873,2.873,0,0,1-1.875-.065l1.146,1.461a0.216,0.216,0,0,1-.121.3l-1.671.666v1.5l1.653,0.666a0.3,0.3,0,0,1,.083.36l-1.08,1.4,0.757,1.294,1.736-.24a0.251,0.251,0,0,1,.268.25l-0.249,1.756,1.292,0.749,1.413-1.109a0.282,0.282,0,0,1,.324.064l0.674,1.692h1.5L191,675.551a0.309,0.309,0,0,1,.314-0.1l1.44,1.128a2.815,2.815,0,0,1-.073-1.877l-1.229-1.257a4.3,4.3,0,0,1-6.15-4.068,4.236,4.236,0,0,1,.434-1.636Zm7.767,3.762,1.219,1.221a2.877,2.877,0,0,1,1.875.064l-1.145-1.46a0.216,0.216,0,0,1,.12-0.3l1.671-.666v-1.5l-1.653-.666a0.3,0.3,0,0,1-.083-0.36l1.081-1.4-0.758-1.294-1.736.24a0.252,0.252,0,0,1-.268-0.25l0.25-1.756-1.293-.749-1.413,1.109a0.28,0.28,0,0,1-.323-0.064l-0.674-1.692h-1.5l-0.665,1.673a0.31,0.31,0,0,1-.314.1l-1.441-1.128a2.819,2.819,0,0,1,.074,1.877l1.228,1.257a4.261,4.261,0,0,1,5.717,5.7Zm-12.394-8.411,1.552,1.553a0.806,0.806,0,0,0,.988.018,2.756,2.756,0,0,0,1.154-1.34,0.791,0.791,0,0,0-.323-0.814l-1.4-1.4a2.524,2.524,0,0,1,1.016-.055,2.594,2.594,0,0,1,1.182.508,2.68,2.68,0,0,1,.915,3.051l1.311,1.331a3.151,3.151,0,0,0-1.607,1.516l-1.311-1.257a2.765,2.765,0,0,1-1.506.055,2.7,2.7,0,0,1-1.459-.915,2.614,2.614,0,0,1-.591-1.673,2.514,2.514,0,0,1,.074-0.555Zm17.02,13.063-1.551-1.553a0.808,0.808,0,0,0-.988-0.019,2.756,2.756,0,0,0-1.155,1.341,0.79,0.79,0,0,0,.323.813l1.4,1.4a2.524,2.524,0,0,1-1.016.056,2.612,2.612,0,0,1-1.182-.509,2.677,2.677,0,0,1-.914-3.05l-1.311-1.332a3.147,3.147,0,0,0,1.606-1.516l1.312,1.258a2.761,2.761,0,0,1,1.5-.056,2.7,2.7,0,0,1,1.459.915,2.617,2.617,0,0,1,.591,1.674,2.392,2.392,0,0,1-.074.554Z" transform="translate(-180 -660)"/>
  </g>
</svg>
