<svg xmlns="http://www.w3.org/2000/svg" xmlns:xlink="http://www.w3.org/1999/xlink" width="20" height="20" viewBox="0 0 20 20">
  <defs>
    <style>
      .cls-1, .cls-2, .cls-3, .cls-4 {
        fill-rule: evenodd;
      }

      .cls-1 {
        filter: url(#filter);
      }

      .cls-2 {
        fill: #0da5cb;
      }

      .cls-3 {
        fill: #fff;
      }

      .cls-4 {
        filter: url(#filter-2);
      }
    </style>
    <filter id="filter" x="298.312" y="4.031" width="13.844" height="14.156" filterUnits="userSpaceOnUse">
      <feFlood result="flood" flood-color="#7b7b7b"/>
      <feComposite result="composite" operator="in" in2="SourceGraphic"/>
      <feBlend result="blend" in2="SourceGraphic"/>
    </filter>
    <filter id="filter-2" x="307.812" y="3" width="5.938" height="2.094" filterUnits="userSpaceOnUse">
      <feFlood result="flood" flood-color="#7b7b7b"/>
      <feComposite result="composite" operator="in" in2="SourceGraphic"/>
      <feBlend result="blend" in2="SourceGraphic"/>
    </filter>
  </defs>
  <g id="SQL">
    <g>
      <path class="cls-1" d="M305.694,18.185H304.8a1.893,1.893,0,0,1-1.934-1.845,0.663,0.663,0,0,0-.1-0.345,0.785,0.785,0,0,0-.48-0.356,0.808,0.808,0,0,0-.593.076,2.041,2.041,0,0,1-1.483.171A1.911,1.911,0,0,1,299.044,15l-0.444-.731a1.8,1.8,0,0,1,.7-2.512,0.739,0.739,0,0,0,0-1.31,1.8,1.8,0,0,1-.7-2.517l0.483-.757a1.986,1.986,0,0,1,2.63-.669,0.776,0.776,0,0,0,1.161-.643,1.775,1.775,0,0,1,.561-1.3,1.961,1.961,0,0,1,1.366-.542h0.9a1.987,1.987,0,0,1,1.384.559,1.8,1.8,0,0,1,.547,1.34,0.673,0.673,0,0,0,.1.327,0.787,0.787,0,0,0,.482.349,0.829,0.829,0,0,0,.6-0.08,1.99,1.99,0,0,1,2.642.677L311.9,7.934a0.418,0.418,0,0,1,.033.063,1.807,1.807,0,0,1-.735,2.453,0.759,0.759,0,0,0-.288.274,0.728,0.728,0,0,0-.083.574,0.755,0.755,0,0,0,.368.456,1.842,1.842,0,0,1,.9,1.12,1.749,1.749,0,0,1-.2,1.4l-0.473.752a1.992,1.992,0,0,1-2.633.665,0.848,0.848,0,0,0-.383-0.1,0.77,0.77,0,0,0-.777.754A1.9,1.9,0,0,1,305.694,18.185Zm-3.609-3.66a2.009,2.009,0,0,1,.494.062,1.929,1.929,0,0,1,1.171.86,1.733,1.733,0,0,1,.258.888,0.776,0.776,0,0,0,.792.761h0.894a0.776,0.776,0,0,0,.792-0.752,1.781,1.781,0,0,1,.565-1.3,2.082,2.082,0,0,1,1.371-.539,2.055,2.055,0,0,1,.934.247,0.818,0.818,0,0,0,1.082-.274l0.474-.753a0.709,0.709,0,0,0,.076-0.564,0.754,0.754,0,0,0-.368-0.458,1.863,1.863,0,0,1-.9-1.12,1.775,1.775,0,0,1,.2-1.4,1.868,1.868,0,0,1,.7-0.671,0.739,0.739,0,0,0,.284-1.025l-0.027-.05-0.415-.688a0.814,0.814,0,0,0-1.08-.279,2.031,2.031,0,0,1-1.458.192,1.93,1.93,0,0,1-1.178-.85,1.724,1.724,0,0,1-.261-0.89,0.755,0.755,0,0,0-.223-0.571,0.816,0.816,0,0,0-.568-0.229H304.8a0.8,0.8,0,0,0-.557.221,0.73,0.73,0,0,0-.229.532A1.9,1.9,0,0,1,302.08,7.7a1.954,1.954,0,0,1-.943-0.251,0.813,0.813,0,0,0-1.073.283l-0.483.758a0.736,0.736,0,0,0,.295,1.02,1.8,1.8,0,0,1,0,3.195,0.732,0.732,0,0,0-.287,1.024l0.449,0.739a0.787,0.787,0,0,0,.483.37,0.828,0.828,0,0,0,.6-0.068A1.986,1.986,0,0,1,302.085,14.525Zm3.165-1.082a2.4,2.4,0,0,1-2.449-2.336,2.452,2.452,0,0,1,4.9,0A2.4,2.4,0,0,1,305.25,13.443Zm0-3.584a1.249,1.249,0,1,0,1.308,1.248A1.28,1.28,0,0,0,305.25,9.859Z" transform="translate(-296)"/>
      <g id="db2">
        <path class="cls-2" d="M307.8,3.95V9.441a5.866,5.866,0,0,0,6.146,0L313.761,3.95a4.941,4.941,0,0,1-2.916,1A5.243,5.243,0,0,1,307.8,3.95Z" transform="translate(-296)"/>
        <path class="cls-3" d="M308.174,5.963a6.4,6.4,0,0,0,5.215,0V6.512a8.71,8.71,0,0,1-5.215,0V5.963Z" transform="translate(-296)"/>
        <path id="Shape_2_copy" data-name="Shape 2 copy" class="cls-3" d="M308.174,7.61a6.4,6.4,0,0,0,5.215,0V8.159a8.71,8.71,0,0,1-5.215,0V7.61Z" transform="translate(-296)"/>
        <path id="Ellipse_1_copy" data-name="Ellipse 1 copy" class="cls-4" d="M310.782,3c1.645,0,2.979.465,2.979,1.039s-1.334,1.039-2.979,1.039-2.98-.465-2.98-1.039S309.136,3,310.782,3Zm0,0.445c1.23,0,2.042.165,2.042,0.594s-0.812.594-2.042,0.594-2.043-.165-2.043-0.594S309.551,3.447,310.782,3.447Z" transform="translate(-296)"/>
      </g>
    </g>
  </g>
</svg>
