<svg xmlns="http://www.w3.org/2000/svg" xmlns:xlink="http://www.w3.org/1999/xlink" width="20" height="20" viewBox="0 0 20 20">
  <defs>
    <style>
      .cls-1 {
        filter: url(#filter);
      }

      .cls-2 {
        fill: #0840a6;
      }

      .cls-2, .cls-3 {
        fill-rule: evenodd;
      }

      .cls-3 {
        fill: #7b7b7b;
      }
    </style>
    <filter id="filter" filterUnits="userSpaceOnUse">
      <feFlood result="flood" flood-color="#7b7b7b"/>
      <feComposite result="composite" operator="in" in2="SourceGraphic"/>
      <feBlend result="blend" in2="SourceGraphic"/>
    </filter>
  </defs>
  <g id="String_array" data-name="String array">
    <g class="cls-1">
      <g>
        <path class="cls-2" d="M461.915,18H446V3.212h1.326V2.606h1.447V2H463V15.455h-0.482v1.455h-0.6V18ZM446.362,3.576V17.515h15.191V16.788H447.326V3.576h-0.964Zm1.2-.606V16.424h14.589v-0.97h-13.5V2.97h-1.085Zm1.447-.485h13.624V15.091H449.014V2.485Z" transform="translate(-444)"/>
        <path id="T" class="cls-3" d="M459.584,5.613H452.22a0.459,0.459,0,0,0-.46.457V7.442a0.46,0.46,0,0,0,.92,0V6.528h2.762v5.944h-0.92a0.457,0.457,0,1,0,0,.915h2.761a0.457,0.457,0,1,0,0-.915h-0.92V6.528h2.761V7.442a0.461,0.461,0,0,0,.921,0V6.071A0.459,0.459,0,0,0,459.584,5.613Z" transform="translate(-444)"/>
      </g>
    </g>
  </g>
</svg>
