<svg xmlns="http://www.w3.org/2000/svg" xmlns:xlink="http://www.w3.org/1999/xlink" width="20" height="20" viewBox="0 0 20 20">
  <defs>
    <style>
      .cls-1 {
        filter: url(#filter);
      }

      .cls-2 {
        fill-rule: evenodd;
      }
    </style>
    <filter id="filter" filterUnits="userSpaceOnUse">
      <feFlood result="flood" flood-color="#7b7b7b"/>
      <feComposite result="composite" operator="in" in2="SourceGraphic"/>
      <feBlend result="blend" in2="SourceGraphic"/>
    </filter>
  </defs>
  <g id="TCF_Block" data-name="TCF Block">
    <g id="T_C" data-name="T C" class="cls-1">
      <path class="cls-2" d="M963.994,6.388h5.237a0.436,0.436,0,0,1,0,.873h-5.237A0.436,0.436,0,0,1,963.994,6.388Zm0,6.459h5.237a0.436,0.436,0,0,1,0,.873h-5.237A0.436,0.436,0,0,1,963.994,12.847Zm10.736,0h4.189l-0.7-.7s-0.154-.892.873-0.524l1.745,1.746-1.92,1.746s-0.958.087-.7-0.7l0.873-.7H974.73V12.847Z" transform="translate(-962)"/>
      <path id="T" class="cls-2" d="M972.2,3.769a3.055,3.055,0,1,1-3.055,3.055A3.054,3.054,0,0,1,972.2,3.769Zm0,0.575a2.48,2.48,0,1,1-2.48,2.48A2.479,2.479,0,0,1,972.2,4.345ZM971.064,5.69h2.1V6.213h-2.1V5.69h0Zm0.873,0.524h0.523V8.308h-0.523V6.213h0Z" transform="translate(-962)"/>
      <path id="C" class="cls-2" d="M972.2,10.228a3.055,3.055,0,1,1-3.055,3.055A3.054,3.054,0,0,1,972.2,10.228Zm0,0.575a2.48,2.48,0,1,1-2.48,2.48A2.479,2.479,0,0,1,972.2,10.8Zm0.548,2.137a0.662,0.662,0,0,0-.447-0.447,0.555,0.555,0,0,0-.406.041,0.837,0.837,0,0,0-.285.447,1.116,1.116,0,0,0,0,.732,0.777,0.777,0,0,0,.407.488,0.581,0.581,0,0,0,.488,0,0.562,0.562,0,0,0,.284-0.488l0.488,0.163a1.077,1.077,0,0,1-.813.773,1.124,1.124,0,0,1-.691-0.081,1.208,1.208,0,0,1-.569-0.529,1.848,1.848,0,0,1-.122-0.894,1.494,1.494,0,0,1,.2-0.65,1.118,1.118,0,0,1,.569-0.407,1.271,1.271,0,0,1,.61-0.041,1.052,1.052,0,0,1,.528.284,0.869,0.869,0,0,1,.244.488Z" transform="translate(-962)"/>
    </g>
  </g>
</svg>
